<svg width="29" height="29" viewBox="0 0 29 29" fill="none" xmlns="http://www.w3.org/2000/svg">
<path d="M13.7768 4.17832H10.0323C8.06632 4.17832 7.0833 4.17832 6.33238 4.56094C5.67185 4.8975 5.13482 5.43452 4.79826 6.09505C4.41565 6.84598 4.41565 7.82899 4.41565 9.79502V19.6242C4.41565 21.5903 4.41565 22.5733 4.79826 23.3242C5.13482 23.9847 5.67185 24.5218 6.33238 24.8583C7.0833 25.2409 8.06632 25.2409 10.0323 25.2409H19.8616C21.8276 25.2409 22.8106 25.2409 23.5615 24.8583C24.2221 24.5218 24.7591 23.9847 25.0956 23.3242C25.4783 22.5733 25.4783 21.5903 25.4783 19.6242V15.8798M14.947 10.029H19.6275V14.7096M19.0425 4.7634V3.00818M23.6521 6.00452L24.8932 4.7634M24.9052 10.6141H26.6604M4.41565 16.2859C5.17851 16.4037 5.96009 16.4648 6.75594 16.4648C11.8886 16.4648 16.4276 13.9228 19.1825 10.029" stroke="#FC6111" stroke-width="2.34029" stroke-linecap="round" stroke-linejoin="round"/>
</svg>
