<svg width="50" height="50" viewBox="0 0 50 50" fill="none" xmlns="http://www.w3.org/2000/svg">
<path d="M39.1344 40.2807C41.1486 40.2308 43.0635 39.3954 44.4702 37.9529C45.8769 36.5104 46.6639 34.5752 46.6633 32.5604V24.8401C46.6633 24.0211 46.3379 23.2356 45.7588 22.6564C45.1797 22.0773 44.3942 21.752 43.5752 21.752H34.3108C33.4918 21.752 32.7063 22.0773 32.1271 22.6564C31.548 23.2356 31.2227 24.0211 31.2227 24.8401V32.5604C31.2223 33.5906 31.4282 34.6104 31.8281 35.5597C32.228 36.5091 32.8139 37.3689 33.5512 38.0883C34.2885 38.8078 35.1623 39.3724 36.1212 39.7489C37.0801 40.1254 38.1046 40.3063 39.1344 40.2807Z" fill="url(#paint0_linear_21_495)"/>
<path d="M39.1344 40.2807C41.1486 40.2308 43.0635 39.3954 44.4702 37.9529C45.8769 36.5104 46.6639 34.5752 46.6633 32.5604V24.8401C46.6633 24.0211 46.3379 23.2356 45.7588 22.6564C45.1797 22.0773 44.3942 21.752 43.5752 21.752H34.3108C33.4918 21.752 32.7063 22.0773 32.1271 22.6564C31.548 23.2356 31.2227 24.0211 31.2227 24.8401V32.5604C31.2223 33.5906 31.4282 34.6104 31.8281 35.5597C32.228 36.5091 32.8139 37.3689 33.5512 38.0883C34.2885 38.8078 35.1623 39.3724 36.1212 39.7489C37.0801 40.1254 38.1046 40.3063 39.1344 40.2807Z" fill="url(#paint1_radial_21_495)" fill-opacity="0.5"/>
<path d="M11.3415 40.2807C13.3557 40.2308 15.2705 39.3954 16.6772 37.9529C18.0839 36.5104 18.8709 34.5752 18.8703 32.5604V24.8401C18.8703 24.0211 18.545 23.2356 17.9658 22.6564C17.3867 22.0773 16.6012 21.752 15.7822 21.752H6.51782C5.69879 21.752 4.91332 22.0773 4.33418 22.6564C3.75504 23.2356 3.42969 24.0211 3.42969 24.8401V32.5604C3.42937 33.5906 3.63523 34.6104 4.03513 35.5597C4.43503 36.5091 5.02088 37.3689 5.75818 38.0883C6.49548 38.8078 7.36932 39.3724 8.3282 39.7489C9.28708 40.1254 10.3116 40.3063 11.3415 40.2807Z" fill="url(#paint2_linear_21_495)"/>
<path d="M11.3415 40.2807C13.3557 40.2308 15.2705 39.3954 16.6772 37.9529C18.0839 36.5104 18.8709 34.5752 18.8703 32.5604V24.8401C18.8703 24.0211 18.545 23.2356 17.9658 22.6564C17.3867 22.0773 16.6012 21.752 15.7822 21.752H6.51782C5.69879 21.752 4.91332 22.0773 4.33418 22.6564C3.75504 23.2356 3.42969 24.0211 3.42969 24.8401V32.5604C3.42937 33.5906 3.63523 34.6104 4.03513 35.5597C4.43503 36.5091 5.02088 37.3689 5.75818 38.0883C6.49548 38.8078 7.36932 39.3724 8.3282 39.7489C9.28708 40.1254 10.3116 40.3063 11.3415 40.2807Z" fill="url(#paint3_radial_21_495)" fill-opacity="0.5"/>
<path d="M15.7822 24.8185C15.7879 24.0032 16.1158 23.2233 16.6943 22.6488C17.2728 22.0743 18.0551 21.7519 18.8704 21.752H31.2229C32.0419 21.752 32.8274 22.0773 33.4065 22.6564C33.9856 23.2356 34.311 24.0211 34.311 24.8401V34.1045C34.3118 35.0764 34.1597 36.0425 33.8601 36.9672C33.1763 39.0631 31.7677 40.8466 29.8873 41.9974C28.0068 43.1482 25.7777 43.591 23.6002 43.2462C21.4227 42.9013 19.4394 41.7915 18.0065 40.116C16.5737 38.4405 15.785 36.3091 15.7822 34.1045V24.8185Z" fill="url(#paint4_linear_21_495)"/>
<path d="M15.7822 24.8185C15.7879 24.0032 16.1158 23.2233 16.6943 22.6488C17.2728 22.0743 18.0551 21.7519 18.8704 21.752H31.2229C32.0419 21.752 32.8274 22.0773 33.4065 22.6564C33.9856 23.2356 34.311 24.0211 34.311 24.8401V34.1045C34.3118 35.0764 34.1597 36.0425 33.8601 36.9672C33.1763 39.0631 31.7677 40.8466 29.8873 41.9974C28.0068 43.1482 25.7777 43.591 23.6002 43.2462C21.4227 42.9013 19.4394 41.7915 18.0065 40.116C16.5737 38.4405 15.785 36.3091 15.7822 34.1045V24.8185Z" fill="url(#paint5_linear_21_495)"/>
<path d="M38.9432 9.39941C37.7147 9.39941 36.5365 9.88745 35.6678 10.7562C34.7991 11.6249 34.311 12.8031 34.311 14.0316C34.311 15.2601 34.7991 16.4384 35.6678 17.3071C36.5365 18.1758 37.7147 18.6638 38.9432 18.6638C40.1718 18.6638 41.35 18.1758 42.2187 17.3071C43.0874 16.4384 43.5754 15.2601 43.5754 14.0316C43.5754 12.8031 43.0874 11.6249 42.2187 10.7562C41.35 9.88745 40.1718 9.39941 38.9432 9.39941Z" fill="url(#paint6_linear_21_495)"/>
<path d="M11.1498 9.39941C9.92124 9.39941 8.74302 9.88745 7.87432 10.7562C7.00561 11.6249 6.51758 12.8031 6.51758 14.0316C6.51758 15.2601 7.00561 16.4384 7.87432 17.3071C8.74302 18.1758 9.92124 18.6638 11.1498 18.6638C12.3783 18.6638 13.5565 18.1758 14.4252 17.3071C15.2939 16.4384 15.782 15.2601 15.782 14.0316C15.782 12.8031 15.2939 11.6249 14.4252 10.7562C13.5565 9.88745 12.3783 9.39941 11.1498 9.39941Z" fill="url(#paint7_linear_21_495)"/>
<path d="M25.0465 6.31738C24.2363 6.31738 23.4339 6.47698 22.6854 6.78705C21.9368 7.09713 21.2566 7.55161 20.6836 8.12456C20.1107 8.6975 19.6562 9.37769 19.3461 10.1263C19.0361 10.8749 18.8765 11.6772 18.8765 12.4875C18.8765 13.2977 19.0361 14.1001 19.3461 14.8486C19.6562 15.5972 20.1107 16.2774 20.6836 16.8504C21.2566 17.4233 21.9368 17.8778 22.6854 18.1879C23.4339 18.4979 24.2363 18.6575 25.0465 18.6575C26.683 18.6575 28.2523 18.0075 29.4094 16.8504C30.5666 15.6933 31.2166 14.1239 31.2166 12.4875C31.2166 10.8511 30.5666 9.28167 29.4094 8.12456C28.2523 6.96744 26.683 6.31738 25.0465 6.31738Z" fill="url(#paint8_linear_21_495)"/>
<defs>
<linearGradient id="paint0_linear_21_495" x1="34.8944" y1="24.2132" x2="44.9772" y2="37.6311" gradientUnits="userSpaceOnUse">
<stop offset="0.125" stop-color="#FC6111"/>
<stop offset="1" stop-color="#FC6111"/>
</linearGradient>
<radialGradient id="paint1_radial_21_495" cx="0" cy="0" r="1" gradientUnits="userSpaceOnUse" gradientTransform="translate(28.7954 30.584) scale(12.4255 25.2967)">
<stop offset="0.433" stop-color="#3B148A"/>
<stop offset="1" stop-color="#3B148A" stop-opacity="0"/>
</radialGradient>
<linearGradient id="paint2_linear_21_495" x1="7.10147" y1="24.2132" x2="17.1842" y2="37.6311" gradientUnits="userSpaceOnUse">
<stop offset="0.125" stop-color="#FC6111"/>
<stop offset="1" stop-color="#FC6111"/>
</linearGradient>
<radialGradient id="paint3_radial_21_495" cx="0" cy="0" r="1" gradientUnits="userSpaceOnUse" gradientTransform="translate(23.8731 30.584) rotate(180) scale(13.7509 27.995)">
<stop offset="0.433" stop-color="#3B148A"/>
<stop offset="1" stop-color="#3B148A" stop-opacity="0"/>
</radialGradient>
<linearGradient id="paint4_linear_21_495" x1="20.189" y1="24.6239" x2="31.8559" y2="40.5926" gradientUnits="userSpaceOnUse">
<stop offset="0.125" stop-color="#FC6111"/>
<stop offset="1" stop-color="#FC6111"/>
</linearGradient>
<linearGradient id="paint5_linear_21_495" x1="25.0466" y1="19.1765" x2="42.6397" y2="47.3525" gradientUnits="userSpaceOnUse">
<stop stop-color="#885EDB" stop-opacity="0"/>
<stop offset="1" stop-color="#E362F8"/>
</linearGradient>
<linearGradient id="paint6_linear_21_495" x1="36.5129" y1="10.6316" x2="41.2346" y2="18.1697" gradientUnits="userSpaceOnUse">
<stop offset="0.125" stop-color="#FC6111"/>
<stop offset="1" stop-color="#FC6111"/>
</linearGradient>
<linearGradient id="paint7_linear_21_495" x1="8.71941" y1="10.6316" x2="13.4412" y2="18.1697" gradientUnits="userSpaceOnUse">
<stop offset="0.125" stop-color="#FC6111"/>
<stop offset="1" stop-color="#FC6111"/>
</linearGradient>
<linearGradient id="paint8_linear_21_495" x1="21.8102" y1="7.95718" x2="28.1007" y2="17.9998" gradientUnits="userSpaceOnUse">
<stop offset="0.125" stop-color="#FC6111"/>
<stop offset="1" stop-color="#FC6111"/>
</linearGradient>
</defs>
</svg>
