<svg width="25" height="25" viewBox="0 0 25 25" fill="none" xmlns="http://www.w3.org/2000/svg">
<path d="M10.6295 17.0236L6.38647 12.7796L7.80047 11.3656L10.6295 14.1936L16.2855 8.53662L17.7005 9.95162L10.6295 17.0236Z" fill="#FC6111"/>
<path fill-rule="evenodd" clip-rule="evenodd" d="M1.38647 12.7096C1.38647 6.63459 6.31147 1.70959 12.3865 1.70959C18.4615 1.70959 23.3865 6.63459 23.3865 12.7096C23.3865 18.7846 18.4615 23.7096 12.3865 23.7096C6.31147 23.7096 1.38647 18.7846 1.38647 12.7096ZM12.3865 21.7096C11.2046 21.7096 10.0343 21.4768 8.94232 21.0245C7.85039 20.5722 6.85824 19.9093 6.02251 19.0736C5.18679 18.2378 4.52385 17.2457 4.07156 16.1537C3.61927 15.0618 3.38647 13.8915 3.38647 12.7096C3.38647 11.5277 3.61927 10.3574 4.07156 9.26544C4.52385 8.17351 5.18679 7.18136 6.02251 6.34563C6.85824 5.50991 7.85039 4.84697 8.94232 4.39468C10.0343 3.94239 11.2046 3.70959 12.3865 3.70959C14.7734 3.70959 17.0626 4.65781 18.7504 6.34563C20.4383 8.03346 21.3865 10.3226 21.3865 12.7096C21.3865 15.0965 20.4383 17.3857 18.7504 19.0736C17.0626 20.7614 14.7734 21.7096 12.3865 21.7096Z" fill="#FC6111"/>
</svg>
