<svg width="42" height="42" viewBox="0 0 42 42" fill="none" xmlns="http://www.w3.org/2000/svg">
<path d="M8.7043 27.926L17.2889 22.7752M24.1567 19.3413L32.7413 14.1905M20.7228 9.03975V17.6244M20.7228 24.4921V33.0768M8.7043 14.1905L17.2889 19.3413M24.1567 22.7752L32.7413 27.926M35.3167 15.9075V25.3506M23.2982 35.6522L32.7413 30.5014M7.84584 30.5014L18.1474 35.6522M6.12891 26.209V15.9075M7.84584 11.6151L18.1474 6.46436M33.5998 11.6151L23.2982 6.46436" stroke="#FC6111" stroke-width="1.5" stroke-linecap="round" stroke-linejoin="round"/>
<path d="M20.7229 9.03995C22.1452 9.03995 23.2982 7.88691 23.2982 6.46455C23.2982 5.0422 22.1452 3.88916 20.7229 3.88916C19.3005 3.88916 18.1475 5.0422 18.1475 6.46455C18.1475 7.88691 19.3005 9.03995 20.7229 9.03995Z" stroke="#FC6111" stroke-width="1.5" stroke-linecap="round" stroke-linejoin="round"/>
<path d="M20.7229 38.2279C22.1452 38.2279 23.2982 37.0749 23.2982 35.6525C23.2982 34.2302 22.1452 33.0771 20.7229 33.0771C19.3005 33.0771 18.1475 34.2302 18.1475 35.6525C18.1475 37.0749 19.3005 38.2279 20.7229 38.2279Z" stroke="#FC6111" stroke-width="1.5" stroke-linecap="round" stroke-linejoin="round"/>
<path d="M6.12911 15.9076C7.55146 15.9076 8.7045 14.7546 8.7045 13.3322C8.7045 11.9099 7.55146 10.7568 6.12911 10.7568C4.70675 10.7568 3.55371 11.9099 3.55371 13.3322C3.55371 14.7546 4.70675 15.9076 6.12911 15.9076Z" stroke="#FC6111" stroke-width="1.5" stroke-linecap="round" stroke-linejoin="round"/>
<path d="M35.3171 15.9076C36.7394 15.9076 37.8925 14.7546 37.8925 13.3322C37.8925 11.9099 36.7394 10.7568 35.3171 10.7568C33.8947 10.7568 32.7417 11.9099 32.7417 13.3322C32.7417 14.7546 33.8947 15.9076 35.3171 15.9076Z" stroke="#FC6111" stroke-width="1.5" stroke-linecap="round" stroke-linejoin="round"/>
<path d="M35.3171 31.3603C36.7394 31.3603 37.8925 30.2072 37.8925 28.7849C37.8925 27.3625 36.7394 26.2095 35.3171 26.2095C33.8947 26.2095 32.7417 27.3625 32.7417 28.7849C32.7417 30.2072 33.8947 31.3603 35.3171 31.3603Z" stroke="#FC6111" stroke-width="1.5" stroke-linecap="round" stroke-linejoin="round"/>
<path d="M6.12911 31.3603C7.55146 31.3603 8.7045 30.2072 8.7045 28.7849C8.7045 27.3625 7.55146 26.2095 6.12911 26.2095C4.70675 26.2095 3.55371 27.3625 3.55371 28.7849C3.55371 30.2072 4.70675 31.3603 6.12911 31.3603Z" stroke="#FC6111" stroke-width="1.5" stroke-linecap="round" stroke-linejoin="round"/>
<path d="M20.7229 17.1953L24.1568 19.1269V22.9899L20.7229 24.9215L17.2891 22.9899V19.1269L20.7229 17.1953Z" stroke="#FC6111" stroke-width="1.5" stroke-linecap="round" stroke-linejoin="round"/>
</svg>
