<svg width="29" height="29" viewBox="0 0 29 29" fill="none" xmlns="http://www.w3.org/2000/svg">
<g clip-path="url(#clip0_13_328)">
<path d="M26.0576 20.639H22.7021L16.1776 1.06535C15.8047 -0.239558 13.9406 -0.239558 13.5677 1.06535L7.04318 20.639H3.6877C3.12845 20.639 2.75562 21.0119 2.75562 21.5711V23.4353C2.75562 23.9945 3.12845 24.3674 3.6877 24.3674H26.0576C26.6169 24.3674 26.9897 23.9945 26.9897 23.4353V21.5711C26.9897 21.0119 26.6169 20.639 26.0576 20.639ZM13.9406 5.72575H15.8047L17.1096 9.45407H12.8221L13.9406 5.72575ZM11.5172 13.1824H18.2281L19.5331 16.9107H10.2123L11.5172 13.1824Z" fill="#FC6111"/>
</g>
<defs>
<clipPath id="clip0_13_328">
<rect width="27.9624" height="27.9624" fill="white" transform="translate(0.891357 0.133301)"/>
</clipPath>
</defs>
</svg>
