<svg width="26" height="27" viewBox="0 0 26 27" fill="none" xmlns="http://www.w3.org/2000/svg">
<path d="M2.80396 24.0935V21.9864C2.80396 21.9864 8.07189 19.8792 13.3398 19.8792C18.6077 19.8792 23.8757 21.9864 23.8757 21.9864V24.0935H2.80396ZM12.6023 10.5023C11.338 6.3933 4.91113 7.34152 4.91113 7.34152C4.91113 7.34152 5.12184 15.5595 11.1273 14.2952C10.7059 11.2398 9.12547 10.3969 9.12547 10.3969C12.0755 10.3969 12.2862 13.9791 12.2862 13.9791V18.8256H14.3934V14.4006C14.3934 14.4006 14.3934 10.2916 17.5542 9.23798C17.5542 9.23798 15.447 12.3987 15.447 14.5059C22.8221 15.2434 22.8221 5.12899 22.8221 5.12899C22.8221 5.12899 13.4452 4.07541 12.6023 10.5023Z" fill="#FC6111"/>
</svg>
