<svg width="29" height="29" viewBox="0 0 29 29" fill="none" xmlns="http://www.w3.org/2000/svg">
<path d="M7.86443 13.8016C7.79199 13.3347 7.75441 12.8565 7.75441 12.3695C7.75441 7.22035 11.9561 3.04614 17.1391 3.04614C22.3221 3.04614 26.5238 7.22035 26.5238 12.3695C26.5238 13.5327 26.3094 14.6461 25.9177 15.6729C25.8363 15.8861 25.7957 15.9928 25.7772 16.076C25.7589 16.1585 25.7518 16.2165 25.7499 16.301C25.7478 16.3862 25.7594 16.4801 25.7825 16.6679L26.2517 20.4791C26.3025 20.8917 26.3279 21.098 26.2593 21.2479C26.1991 21.3793 26.0923 21.4837 25.9596 21.5408C25.8081 21.6059 25.6024 21.5758 25.1911 21.5155L21.479 20.9714C21.2851 20.943 21.1882 20.9287 21.1 20.9292C21.0126 20.9297 20.9522 20.9362 20.8668 20.9542C20.7804 20.9723 20.67 21.0136 20.4493 21.0963C19.4199 21.4819 18.3043 21.6929 17.1391 21.6929C16.6517 21.6929 16.173 21.656 15.7057 21.5848M9.65593 26.3545C13.1113 26.3545 15.9124 23.4848 15.9124 19.9447C15.9124 16.4047 13.1113 13.5349 9.65593 13.5349C6.20058 13.5349 3.39946 16.4047 3.39946 19.9447C3.39946 20.6563 3.51265 21.3408 3.72157 21.9804C3.80989 22.2508 3.85405 22.3859 3.86854 22.4783C3.88367 22.5747 3.88633 22.6288 3.88069 22.7263C3.87529 22.8196 3.85194 22.9251 3.80525 23.136L3.09277 26.3545L6.58297 25.8779C6.77348 25.8519 6.86873 25.8389 6.95191 25.8394C7.03949 25.84 7.08597 25.8448 7.17187 25.8619C7.25344 25.8781 7.37471 25.9209 7.61725 26.0065C8.25627 26.2321 8.94214 26.3545 9.65593 26.3545Z" stroke="white" stroke-width="2.33084" stroke-linecap="round" stroke-linejoin="round"/>
</svg>
