<svg width="29" height="29" viewBox="0 0 29 29" fill="none" xmlns="http://www.w3.org/2000/svg">
<path d="M10.9707 17.0313C10.9707 17.0313 12.5003 18.7794 15.0496 18.7794C17.599 18.7794 19.1286 17.0313 19.1286 17.0313M18.2545 11.2042H18.2662M11.8447 11.2042H11.8564M15.0496 24.0238C20.5206 24.0238 24.9557 19.5887 24.9557 14.1177C24.9557 8.64677 20.5206 4.21167 15.0496 4.21167C9.57865 4.21167 5.14355 8.64677 5.14355 14.1177C5.14355 15.2249 5.32518 16.2896 5.66027 17.2837C5.78636 17.6578 5.84941 17.8449 5.86078 17.9886C5.87202 18.1305 5.86353 18.23 5.82842 18.368C5.79286 18.5077 5.71437 18.653 5.55739 18.9435L3.65116 22.4719C3.37925 22.9752 3.2433 23.2268 3.27373 23.421C3.30023 23.5902 3.39979 23.7391 3.54597 23.8283C3.71379 23.9307 3.99829 23.9013 4.5673 23.8424L10.5354 23.2255C10.7162 23.2068 10.8065 23.1975 10.8889 23.2006C10.9699 23.2037 11.0271 23.2113 11.1061 23.2296C11.1864 23.2481 11.2874 23.287 11.4894 23.3648C12.5943 23.7905 13.7947 24.0238 15.0496 24.0238ZM18.8372 11.2042C18.8372 11.526 18.5763 11.7869 18.2545 11.7869C17.9327 11.7869 17.6718 11.526 17.6718 11.2042C17.6718 10.8824 17.9327 10.6215 18.2545 10.6215C18.5763 10.6215 18.8372 10.8824 18.8372 11.2042ZM12.4274 11.2042C12.4274 11.526 12.1665 11.7869 11.8447 11.7869C11.5229 11.7869 11.262 11.526 11.262 11.2042C11.262 10.8824 11.5229 10.6215 11.8447 10.6215C12.1665 10.6215 12.4274 10.8824 12.4274 11.2042Z" stroke="white" stroke-width="2.33084" stroke-linecap="round" stroke-linejoin="round"/>
</svg>
