<svg width="29" height="29" viewBox="0 0 29 29" fill="none" xmlns="http://www.w3.org/2000/svg">
<path fill-rule="evenodd" clip-rule="evenodd" d="M13.1859 3.43283C13.6012 3.19296 14.0688 3.05803 14.5481 3.03974C15.0273 3.02145 15.5038 3.12035 15.9362 3.32786L16.1343 3.43283L23.5572 7.71745C23.9747 7.95838 24.3267 8.29798 24.5825 8.70652C24.8383 9.11506 24.99 9.58007 25.0244 10.0608L25.0314 10.2708V18.8424C25.0313 19.3242 24.9131 19.7987 24.6872 20.2243C24.4612 20.6499 24.1344 21.0136 23.7353 21.2836L23.5584 21.3957L16.1343 25.6815C15.719 25.9214 15.2515 26.0563 14.7722 26.0746C14.2929 26.0929 13.8164 25.994 13.3841 25.7865L13.1859 25.6803L5.76302 21.398C5.34556 21.1571 4.99353 20.8175 4.73775 20.409C4.48198 20.0004 4.33027 19.5354 4.29589 19.0547L4.28882 18.8447V10.2719C4.28906 9.78999 4.40744 9.31543 4.6336 8.88983C4.85977 8.46423 5.18682 8.10057 5.58612 7.83067L5.76302 7.71863L13.1859 3.43283ZM14.955 5.47548C14.8806 5.43257 14.7977 5.40644 14.7121 5.3989C14.6266 5.39136 14.5404 5.40261 14.4596 5.43185L14.3653 5.47548L6.94238 9.76128C6.86806 9.80424 6.80402 9.86291 6.75472 9.93319C6.70542 10.0035 6.67207 10.0837 6.65698 10.1682L6.64754 10.2719V18.8435C6.64763 18.9294 6.66646 19.0142 6.70272 19.092C6.73898 19.1698 6.79179 19.2388 6.85747 19.2941L6.94238 19.353L14.3653 23.64C14.4397 23.6829 14.5226 23.7091 14.6081 23.7166C14.6937 23.7241 14.7799 23.7129 14.8606 23.6837L14.955 23.64L22.3779 19.3542C22.4524 19.3114 22.5167 19.2528 22.5662 19.1825C22.6157 19.1122 22.6492 19.0319 22.6645 18.9473L22.6727 18.8435V10.2719C22.6728 10.1862 22.6541 10.1015 22.6181 10.0236C22.582 9.94584 22.5294 9.87683 22.464 9.82143L22.3779 9.76128L14.955 5.47548ZM14.6601 9.8403C15.9113 9.8403 17.1112 10.3373 17.9959 11.222C18.8806 12.1067 19.3776 13.3066 19.3776 14.5577C19.3776 15.8089 18.8806 17.0088 17.9959 17.8935C17.1112 18.7782 15.9113 19.2752 14.6601 19.2752C13.409 19.2752 12.2091 18.7782 11.3244 17.8935C10.4397 17.0088 9.94268 15.8089 9.94268 14.5577C9.94268 13.3066 10.4397 12.1067 11.3244 11.222C12.2091 10.3373 13.409 9.8403 14.6601 9.8403ZM14.6601 12.199C14.0346 12.199 13.4346 12.4475 12.9923 12.8899C12.5499 13.3322 12.3014 13.9322 12.3014 14.5577C12.3014 15.1833 12.5499 15.7833 12.9923 16.2256C13.4346 16.668 14.0346 16.9165 14.6601 16.9165C15.2857 16.9165 15.8857 16.668 16.328 16.2256C16.7703 15.7833 17.0189 15.1833 17.0189 14.5577C17.0189 13.9322 16.7703 13.3322 16.328 12.8899C15.8857 12.4475 15.2857 12.199 14.6601 12.199Z" fill="#FC6111"/>
</svg>
