<svg width="25" height="25" viewBox="0 0 25 25" fill="none" xmlns="http://www.w3.org/2000/svg">
<g clip-path="url(#clip0_13_330)">
<path d="M21.6691 3.85557C21.4155 3.69153 21.1255 3.59229 20.8246 3.56657C20.5237 3.54086 20.2211 3.58945 19.9434 3.70808L10.843 7.2922C10.6278 7.38061 10.3972 7.42572 10.1645 7.42494H4.33849C3.84951 7.42494 3.38056 7.61918 3.03481 7.96494C2.68905 8.3107 2.4948 8.77965 2.4948 9.26862V9.41612H0.651123V13.841H2.4948V14.0327C2.50636 14.514 2.70569 14.9716 3.0502 15.3079C3.39472 15.6441 3.85708 15.8323 4.33849 15.8321L6.5509 20.5225C6.70071 20.8383 6.93657 21.1055 7.23139 21.2933C7.5262 21.4812 7.86802 21.5821 8.21759 21.5844H9.14681C9.63322 21.5805 10.0984 21.3846 10.441 21.0392C10.7835 20.6939 10.9758 20.2272 10.9757 19.7407V16.0091L19.9434 19.5932C20.1643 19.68 20.3993 19.725 20.6366 19.726C21.0048 19.7192 21.3632 19.6066 21.6691 19.4015C21.9117 19.2377 22.1118 19.0185 22.2529 18.762C22.3939 18.5055 22.4719 18.2191 22.4803 17.9266V5.37477C22.479 5.07464 22.4044 4.77938 22.263 4.51463C22.1216 4.24988 21.9177 4.02364 21.6691 3.85557ZM9.13206 9.26862V14.0327H4.33849V9.26862H9.13206ZM9.13206 19.7407H8.20284L6.38866 15.8321H9.13206V19.7407ZM11.5215 14.2539C11.3463 14.1645 11.1637 14.0905 10.9757 14.0327V9.16538C11.1619 9.12668 11.3444 9.07241 11.5215 9.00313L20.6366 5.37477V17.8823L11.5215 14.2539ZM22.5246 9.78485V13.4722C23.0135 13.4722 23.4825 13.278 23.8282 12.9322C24.174 12.5865 24.3682 12.1175 24.3682 11.6285C24.3682 11.1396 24.174 10.6706 23.8282 10.3249C23.4825 9.9791 23.0135 9.78485 22.5246 9.78485Z" fill="#FC6111"/>
</g>
<defs>
<clipPath id="clip0_13_330">
<rect width="23.5991" height="23.5991" fill="white" transform="translate(0.651123 0.758179)"/>
</clipPath>
</defs>
</svg>
