<svg width="31" height="31" viewBox="0 0 31 31" fill="none" xmlns="http://www.w3.org/2000/svg">
<g clip-path="url(#clip0_21_539)">
<path d="M4.19128 0.705078H27.2477C29.0295 0.705078 30.4756 2.15118 30.4756 3.93298V26.9894C30.4756 27.8455 30.1355 28.6665 29.5302 29.2719C28.9248 29.8772 28.1038 30.2173 27.2477 30.2173H4.19128C3.33518 30.2173 2.51416 29.8772 1.90881 29.2719C1.30346 28.6665 0.963379 27.8455 0.963379 26.9894L0.963379 3.93298C0.963379 2.15118 2.40948 0.705078 4.19128 0.705078ZM3.73015 3.93298V26.9894C3.73015 27.2439 3.93673 27.4505 4.19128 27.4505H27.2477C27.37 27.4505 27.4873 27.4019 27.5738 27.3155C27.6602 27.229 27.7088 27.1117 27.7088 26.9894V3.93298C27.7088 3.81068 27.6602 3.69339 27.5738 3.60691C27.4873 3.52043 27.37 3.47185 27.2477 3.47185H4.19128C4.06898 3.47185 3.95169 3.52043 3.86521 3.60691C3.77873 3.69339 3.73015 3.81068 3.73015 3.93298ZM22.6364 6.23862C23.0033 6.23862 23.3552 6.38437 23.6146 6.6438C23.874 6.90324 24.0198 7.25511 24.0198 7.622V21.4558C24.0198 21.8227 23.874 22.1746 23.6146 22.434C23.3552 22.6935 23.0033 22.8392 22.6364 22.8392C22.2695 22.8392 21.9176 22.6935 21.6582 22.434C21.3988 22.1746 21.253 21.8227 21.253 21.4558V7.622C21.253 7.25511 21.3988 6.90324 21.6582 6.6438C21.9176 6.38437 22.2695 6.23862 22.6364 6.23862ZM7.41917 7.622C7.41917 7.25511 7.56492 6.90324 7.82436 6.6438C8.08379 6.38437 8.43566 6.23862 8.80256 6.23862C9.16946 6.23862 9.52133 6.38437 9.78076 6.6438C10.0402 6.90324 10.1859 7.25511 10.1859 7.622V17.7668C10.1859 18.1337 10.0402 18.4856 9.78076 18.745C9.52133 19.0045 9.16946 19.1502 8.80256 19.1502C8.43566 19.1502 8.08379 19.0045 7.82436 18.745C7.56492 18.4856 7.41917 18.1337 7.41917 17.7668V7.622ZM15.7195 6.23862C16.0864 6.23862 16.4382 6.38437 16.6977 6.6438C16.9571 6.90324 17.1029 7.25511 17.1029 7.622V14.0778C17.1029 14.4447 16.9571 14.7966 16.6977 15.056C16.4382 15.3154 16.0864 15.4612 15.7195 15.4612C15.3526 15.4612 15.0007 15.3154 14.7413 15.056C14.4818 14.7966 14.3361 14.4447 14.3361 14.0778V7.622C14.3361 7.25511 14.4818 6.90324 14.7413 6.6438C15.0007 6.38437 15.3526 6.23862 15.7195 6.23862Z" fill="#FC6111"/>
</g>
<defs>
<clipPath id="clip0_21_539">
<rect width="29.5122" height="29.5122" fill="white" transform="translate(0.963379 0.705078)"/>
</clipPath>
</defs>
</svg>
