<svg width="29" height="29" viewBox="0 0 29 29" fill="none" xmlns="http://www.w3.org/2000/svg">
<path d="M10.0886 11.0335C10.8997 12.7229 12.0054 14.3063 13.4058 15.7066C14.8061 17.1069 16.3895 18.2127 18.0789 19.0238C18.2242 19.0936 18.2969 19.1285 18.3888 19.1553C18.7156 19.2505 19.1168 19.1821 19.3935 18.984C19.4713 18.9282 19.5379 18.8616 19.6712 18.7284C20.0786 18.3209 20.2823 18.1172 20.4872 17.984C21.2597 17.4817 22.2557 17.4817 23.0282 17.984C23.2331 18.1172 23.4368 18.3209 23.8442 18.7284L24.0713 18.9555C24.6907 19.5748 25.0004 19.8845 25.1686 20.2171C25.5031 20.8785 25.5031 21.6597 25.1686 22.3211C25.0004 22.6537 24.6907 22.9634 24.0713 23.5828L23.8876 23.7665C23.2704 24.3837 22.9618 24.6923 22.5422 24.928C22.0766 25.1896 21.3535 25.3776 20.8194 25.376C20.3382 25.3746 20.0093 25.2812 19.3514 25.0945C15.8163 24.0911 12.4804 22.1979 9.69742 19.4149C6.91442 16.6319 5.02122 13.2961 4.01783 9.76092C3.83112 9.1031 3.73777 8.77419 3.73634 8.29294C3.73475 7.75891 3.9228 7.03578 4.18435 6.57019C4.42005 6.1506 4.72867 5.84198 5.3459 5.22475L5.52961 5.04104C6.14896 4.42169 6.45864 4.11201 6.79123 3.94379C7.45268 3.60923 8.23382 3.60923 8.89526 3.94379C9.22785 4.11201 9.53753 4.42169 10.1569 5.04104L10.384 5.26815C10.7914 5.67558 10.9951 5.8793 11.1283 6.08416C11.6306 6.8567 11.6306 7.85265 11.1283 8.62519C10.9951 8.83005 10.7914 9.03377 10.384 9.44121C10.2508 9.57443 10.1842 9.64104 10.1284 9.7189C9.93027 9.99561 9.86185 10.3968 9.9571 10.7235C9.9839 10.8155 10.0188 10.8881 10.0886 11.0335Z" stroke="white" stroke-width="2.33084" stroke-linecap="round" stroke-linejoin="round"/>
</svg>
