<svg width="44" height="44" viewBox="0 0 44 44" fill="none" xmlns="http://www.w3.org/2000/svg">
<path d="M39.7713 7.87214L22.1106 1.69092L4.45001 7.87214V22.1066C4.45001 29.3951 8.92521 34.4902 13.0967 37.6533C15.6152 39.5437 18.3776 41.0853 21.3088 42.2362C21.509 42.3115 21.7103 42.3834 21.9128 42.4516L22.1106 42.5223L22.312 42.4516C22.6981 42.3175 23.0809 42.1738 23.4599 42.0207C26.1898 40.896 28.7654 39.4284 31.1246 37.6533C35.2978 34.4902 39.7713 29.3951 39.7713 22.1066V7.87214ZM20.3463 28.1377L12.8565 20.6443L15.3537 18.1453L20.3481 23.1415L30.3387 13.1509L32.8377 15.6481L20.3463 28.1377Z" fill="#090909"/>
</svg>
