<svg width="40" height="40" viewBox="0 0 40 40" fill="none" xmlns="http://www.w3.org/2000/svg">
<path fill-rule="evenodd" clip-rule="evenodd" d="M33.3916 19.7716C33.3921 22.3235 32.6787 24.8246 31.3319 26.9921C29.9851 29.1596 28.0587 30.9071 25.7706 32.0368C23.4825 33.1666 20.9239 33.6337 18.3842 33.3852C15.8444 33.1367 13.4249 32.1825 11.3992 30.6306C11.504 30.2773 11.5117 29.9024 11.4215 29.5451C11.3312 29.1879 11.1464 28.8615 10.8865 28.6004C10.6265 28.3393 10.301 28.153 9.94418 28.0612C9.58734 27.9693 9.21235 27.9753 8.85863 28.0785C6.84959 25.4463 5.86398 22.1744 6.08481 18.8704C6.30564 15.5664 7.7179 12.4548 10.0594 10.1134C12.4009 7.77189 15.5125 6.35962 18.8164 6.13879C22.1204 5.91796 25.3923 6.90357 28.0245 8.91262C27.9185 9.26722 27.9104 9.64391 28.0011 10.0027C28.0918 10.3616 28.2779 10.6892 28.5397 10.9508C28.8015 11.2124 29.1292 11.3983 29.4881 11.4888C29.847 11.5793 30.2237 11.5709 30.5783 11.4647C32.405 13.8484 33.3939 16.7684 33.3916 19.7716ZM28.6391 7.94307C28.83 7.75219 29.0566 7.60078 29.306 7.49747C29.5554 7.39417 29.8227 7.341 30.0927 7.341C30.3626 7.341 30.6299 7.39417 30.8793 7.49747C31.1287 7.60078 31.3553 7.75219 31.5462 7.94307C31.737 8.13394 31.8884 8.36055 31.9917 8.60994C32.0951 8.85933 32.1482 9.12663 32.1482 9.39657C32.1482 9.66651 32.0951 9.93381 31.9917 10.1832C31.8884 10.4326 31.737 10.6592 31.5462 10.8501C33.6897 13.7022 34.7317 17.2322 34.4806 20.7912C34.2294 24.3502 32.702 27.6989 30.1792 30.2217C27.6564 32.7445 24.3077 34.2719 20.7487 34.523C17.1897 34.7742 13.6597 33.7322 10.8076 31.5886C10.5209 31.8804 10.1537 32.0801 9.75292 32.1622C9.35216 32.2443 8.93603 32.205 8.55769 32.0494C8.17934 31.8939 7.85596 31.629 7.62886 31.2888C7.40176 30.9485 7.28124 30.5483 7.2827 30.1392C7.28415 29.8675 7.33951 29.5987 7.44558 29.3485C7.55164 29.0983 7.7063 28.8716 7.90059 28.6816C5.76022 25.8291 4.72079 22.3002 4.9732 18.7429C5.22562 15.1856 6.75292 11.8388 9.27462 9.3171C11.7963 6.7954 15.1431 5.2681 18.7004 5.01568C22.2577 4.76327 25.7866 5.8027 28.6391 7.94307ZM19.7193 25.9274C21.3482 25.9274 22.9104 25.2804 24.0622 24.1285C25.214 22.9767 25.8611 21.4145 25.8611 19.7856C25.8611 18.1566 25.214 16.5944 24.0622 15.4426C22.9104 14.2908 21.3482 13.6437 19.7193 13.6437C18.0903 13.6437 16.5281 14.2908 15.3763 15.4426C14.2245 16.5944 13.5774 18.1566 13.5774 19.7856C13.5774 21.4145 14.2245 22.9767 15.3763 24.1285C16.5281 25.2804 18.0903 25.9274 19.7193 25.9274ZM19.7193 30.4843C22.56 30.4843 25.2844 29.3559 27.2931 27.3471C29.3019 25.3384 30.4304 22.614 30.4304 19.7732C30.4304 16.9325 29.3019 14.2081 27.2931 12.1994C25.2844 10.1906 22.56 9.06216 19.7193 9.06216C16.8816 9.06216 14.1601 10.1894 12.1535 12.196C10.147 14.2026 9.01968 16.924 9.01968 19.7617C9.01968 22.5995 10.147 25.3209 12.1535 27.3275C14.1601 29.3341 16.8816 30.4613 19.7193 30.4613V30.4843ZM23.0141 19.7732C23.0141 20.6469 22.6671 21.4847 22.0493 22.1025C21.4316 22.7202 20.5937 23.0673 19.7201 23.0673C18.8465 23.0673 18.0086 22.7202 17.3909 22.1025C16.7731 21.4847 16.4261 20.6469 16.4261 19.7732C16.4261 18.8998 16.773 18.0622 17.3906 17.4446C18.0082 16.827 18.8459 16.4801 19.7193 16.4801C20.5927 16.4801 21.4303 16.827 22.0479 17.4446C22.6655 18.0622 23.0125 18.8998 23.0125 19.7732" fill="#FC6111"/>
</svg>
